<?xml version="1.0" standalone="no"?>
<!DOCTYPE svg PUBLIC "-//W3C//DTD SVG 20010904//EN"
 "http://www.w3.org/TR/2001/REC-SVG-20010904/DTD/svg10.dtd">
<svg version="1.0" xmlns="http://www.w3.org/2000/svg"
 width="236.000000pt" height="236.000000pt" viewBox="0 0 236.000000 236.000000"
 preserveAspectRatio="xMidYMid meet">

<g transform="translate(0.000000,236.000000) scale(0.100000,-0.100000)"
fill="#000000" stroke="none">
<path d="M0 1180 l0 -1180 1180 0 1180 0 0 1180 0 1180 -1180 0 -1180 0 0
-1180z m1217 879 c34 -13 66 -46 53 -54 -6 -3 -15 -3 -21 1 -8 5 -8 1 0 -14 6
-11 11 -36 11 -55 0 -48 -50 -92 -94 -83 -34 7 -64 31 -77 61 -7 18 -8 18 -8
2 -1 -10 -5 -15 -11 -12 -5 3 -10 0 -11 -7 0 -7 -5 -2 -10 12 -22 53 24 131
87 150 40 12 49 12 81 -1z m-282 -104 c15 -14 25 -36 25 -51 0 -27 -1 -27 -15
-8 -12 16 -14 16 -15 3 0 -27 -36 -52 -65 -45 -18 5 -25 2 -25 -9 0 -23 -18
-18 -36 10 -21 32 -12 83 19 107 33 26 83 23 112 -7z m589 4 c24 -19 38 -48
16 -34 -5 3 -7 0 -4 -9 7 -18 -26 -76 -43 -76 -7 0 -13 7 -13 15 0 22 -27 30
-44 12 -8 -8 -12 -17 -9 -21 4 -3 1 -6 -5 -6 -16 0 -32 33 -32 65 0 33 44 75
80 75 15 0 39 -9 54 -21z m-851 -103 c33 -14 86 -63 55 -51 -9 4 -19 1 -23 -4
-3 -6 -12 -8 -18 -4 -7 3 -5 -2 4 -13 35 -41 33 -62 -10 -104 -22 -22 -49 -40
-61 -40 -30 0 -63 37 -56 63 3 12 1 29 -4 37 -8 13 -10 13 -10 -1 0 -16 -19
-29 -41 -29 -5 0 -9 15 -9 34 0 45 38 98 80 113 46 16 55 16 93 -1z m1096 -2
c22 -9 47 -26 55 -39 21 -31 20 -33 -7 -28 -21 4 -23 2 -19 -31 3 -24 -3 -46
-18 -71 -18 -30 -26 -34 -48 -29 -15 4 -42 15 -60 25 l-33 19 12 -22 c10 -18
9 -20 -6 -14 -13 5 -16 2 -11 -11 4 -11 -4 -7 -19 10 -49 55 -22 162 48 192
42 18 58 18 106 -1z m-813 -112 c14 -29 23 -56 20 -59 -8 -8 -8 -8 -39 65 -43
101 -30 97 19 -6z m89 57 c0 -7 -8 -15 -17 -17 -18 -3 -25 18 -11 32 10 10 28
1 28 -15z m380 -29 c-14 -27 -25 -56 -25 -64 0 -16 -18 -31 -26 -23 -7 6 58
137 68 137 5 0 -3 -22 -17 -50z m-248 -32 c-2 -13 -4 -3 -4 22 0 25 2 35 4 23
2 -13 2 -33 0 -45z m163 47 c0 -8 -6 -15 -14 -15 -17 0 -28 14 -19 24 12 12
33 6 33 -9z m-252 -52 c-4 -22 -22 -20 -26 1 -2 10 3 16 13 16 10 0 15 -7 13
-17z m200 -4 c-2 -6 -8 -10 -13 -10 -5 0 -11 4 -13 10 -2 6 4 11 13 11 9 0 15
-5 13 -11z m-420 -11 c19 -19 14 -30 -10 -22 -29 8 -31 10 -23 23 8 14 18 14
33 -1z m-46 -33 c0 -5 -5 -11 -11 -13 -6 -2 -11 4 -11 13 0 9 5 15 11 13 6 -2
11 -8 11 -13z m682 -4 c3 -5 -1 -12 -10 -15 -22 -9 -24 -8 -24 9 0 16 25 21
34 6z m-167 -36 c216 -68 351 -234 378 -462 3 -30 2 -53 -3 -53 -5 0 -12 24
-16 53 -9 71 -25 117 -41 117 -7 0 -36 -7 -64 -17 -35 -11 -55 -13 -62 -6 -7
7 0 14 20 23 17 7 31 15 31 19 0 12 -59 101 -67 101 -5 0 -20 -10 -34 -23 -25
-21 -26 -24 -12 -42 8 -11 27 -45 41 -75 49 -104 30 -274 -36 -334 -12 -10
-19 -22 -17 -27 3 -4 0 -11 -6 -15 -8 -5 -9 -3 -4 7 5 8 -8 -3 -28 -23 -20
-21 -41 -38 -47 -38 -6 0 -8 -5 -4 -12 4 -6 3 -8 -3 -5 -13 8 -65 -17 -56 -27
4 -4 -1 -4 -11 0 -15 6 -17 4 -11 -6 5 -9 4 -11 -4 -6 -6 4 -17 3 -24 -2 -38
-29 -167 -18 -246 23 -51 26 -127 101 -157 155 -35 61 -47 125 -42 213 4 60 3
74 -4 52 -5 -16 -10 -36 -10 -42 -1 -7 -5 -13 -9 -13 -4 0 -11 -9 -14 -20 -4
-11 -11 -18 -16 -15 -5 4 -9 -3 -9 -14 0 -30 -19 -36 -29 -9 -7 16 -10 18 -10
6 -1 -12 -7 -16 -22 -13 -21 4 -22 2 -16 -67 3 -39 10 -75 15 -80 5 -5 33 1
67 16 31 14 62 23 68 19 13 -8 -21 -33 -45 -33 -11 0 -33 -7 -50 -16 -26 -14
-29 -19 -24 -47 l5 -32 -19 35 c-39 72 -52 139 -48 255 3 105 5 114 44 195 71
147 161 227 317 281 110 39 221 40 334 4z m-457 6 c0 -6 -4 -13 -10 -16 -5 -3
-10 1 -10 9 0 9 5 16 10 16 6 0 10 -4 10 -9z m-98 -55 c10 -19 8 -18 -16 3
-14 14 -26 29 -26 34 0 13 29 -12 42 -37z m728 34 c0 -5 -4 -10 -10 -10 -5 0
-10 5 -10 10 0 6 5 10 10 10 6 0 10 -4 10 -10z m88 -19 c-13 -17 -27 -30 -31
-30 -5 -1 2 12 15 28 13 17 27 30 31 30 5 1 -2 -12 -15 -28z m392 -76 l21 -22
-24 2 c-21 3 -23 -1 -19 -23 3 -16 -1 -29 -12 -37 -15 -12 -15 -13 4 -18 12
-3 20 -13 20 -26 0 -19 -6 -21 -50 -21 -44 0 -50 2 -50 21 0 13 8 23 21 26 15
4 17 8 8 14 -7 4 -19 3 -26 -3 -7 -6 -22 -8 -33 -5 -14 4 -20 0 -20 -12 0 -18
-94 -70 -106 -58 -3 3 17 15 45 28 49 20 51 23 51 59 0 91 110 139 170 75z
m-1486 -6 c15 -17 26 -42 25 -57 0 -24 -1 -25 -8 -7 -8 19 -8 19 -15 -3 -8
-25 -54 -82 -66 -82 -5 0 -22 11 -38 25 -26 21 -31 23 -36 9 -3 -9 -3 -21 1
-27 3 -7 -3 -3 -15 7 -33 29 -31 101 5 138 22 23 35 28 74 28 40 0 51 -4 73
-31z m171 -9 c11 -35 -3 -60 -35 -60 -36 0 -56 30 -40 60 7 13 21 20 40 20 20
0 31 -6 35 -20z m1079 -2 c14 -23 -3 -52 -33 -56 -42 -6 -67 38 -39 66 17 17
58 11 72 -10z m271 -48 c0 -16 -6 -26 -18 -28 -19 -4 -32 20 -23 44 9 25 41
13 41 -16z m-1440 -71 c25 -11 45 -23 42 -25 -4 -5 -97 35 -97 41 0 8 5 6 55
-16z m-49 -100 c10 -17 -13 -36 -27 -22 -12 12 -4 33 11 33 5 0 12 -5 16 -11z
m1304 -8 c0 -6 -4 -13 -10 -16 -5 -3 -10 1 -10 9 0 9 5 16 10 16 6 0 10 -4 10
-9z m-1392 -41 c38 -24 40 -29 7 -26 l-24 3 19 -25 c11 -13 20 -38 20 -54 0
-41 -48 -88 -90 -88 -41 0 -90 47 -90 87 l-1 28 -14 -30 -13 -30 -1 33 c-3 97
101 154 187 102z m1342 5 c0 -8 -6 -15 -14 -15 -17 0 -28 14 -19 24 12 12 33
6 33 -9z m192 3 c-19 -19 -15 -26 23 -44 21 -10 38 -26 41 -40 3 -13 10 -24
15 -24 23 0 -37 -79 -69 -91 -54 -21 -137 54 -112 100 13 25 13 41 -1 41 -5 0
-8 -4 -5 -8 3 -5 -1 -9 -9 -9 -18 0 -18 2 -4 28 15 28 69 59 104 59 22 0 26
-3 17 -12z m-1410 -13 c0 -5 -5 -11 -11 -13 -6 -2 -11 4 -11 13 0 9 5 15 11
13 6 -2 11 -8 11 -13z m8 -105 c0 -5 -14 -10 -31 -10 -17 0 -28 4 -24 10 3 6
17 10 31 10 13 0 24 -4 24 -10z m1255 0 c4 -6 -7 -10 -24 -10 -17 0 -31 5 -31
10 0 6 11 10 24 10 14 0 28 -4 31 -10z m-1262 -87 c9 -9 -13 -34 -24 -27 -14
8 -11 34 4 34 8 0 17 -3 20 -7z m1217 -3 c0 -5 -7 -10 -16 -10 -8 0 -12 5 -9
10 3 6 10 10 16 10 5 0 9 -4 9 -10z m48 -48 c3 -21 -29 -48 -42 -35 -10 11 -7
23 7 21 7 -2 11 6 9 20 -3 30 22 24 26 -6z m-1308 0 c0 -13 -12 -22 -22 -16
-10 6 -1 24 13 24 5 0 9 -4 9 -8z m68 -23 c-2 -6 -8 -10 -13 -10 -5 0 -11 4
-13 10 -2 6 4 11 13 11 9 0 15 -5 13 -11z m-125 -71 c12 -6 27 -18 33 -26 10
-14 18 -13 64 6 76 32 74 19 -2 -16 -42 -19 -77 -44 -101 -72 l-37 -44 -33 32
c-31 30 -55 43 -43 23 3 -5 0 -14 -8 -20 -19 -16 -27 19 -15 62 17 58 86 85
142 55z m1447 -8 c-13 -12 -30 -18 -37 -15 -8 2 -12 1 -9 -4 3 -5 -1 -14 -9
-21 -8 -7 -15 -9 -15 -4 0 5 -7 0 -15 -10 -12 -16 -15 -17 -15 -4 0 9 -21 24
-51 37 -28 13 -49 25 -46 27 3 3 23 -4 46 -15 51 -26 55 -26 85 4 16 16 36 25
57 25 l32 0 -23 -20z m27 -31 c6 -6 9 -17 7 -24 -3 -7 -1 -16 5 -20 6 -3 11
-17 11 -30 0 -47 -68 -57 -90 -14 -9 15 -7 19 6 19 9 0 22 -7 28 -16 11 -14
13 -14 25 0 11 13 7 17 -23 30 -37 15 -45 33 -24 54 15 15 41 15 55 1z m-1048
-21 c-2 -2 -19 -16 -37 -32 -39 -36 -43 -20 -6 24 19 22 30 28 37 21 6 -6 9
-12 6 -13z m-224 -49 c4 -5 4 -21 1 -33 -11 -46 -71 -44 -82 1 -13 50 54 77
81 32z m1079 5 c12 -32 6 -55 -19 -66 -21 -9 -28 -8 -45 7 -37 33 -19 75 31
75 15 0 29 -7 33 -16z m-740 -68 c-3 -15 -8 -25 -11 -23 -2 3 -1 17 3 31 3 15
8 25 11 23 2 -3 1 -17 -3 -31z m-249 -86 c-21 -22 -35 -28 -61 -26 -30 2 -32
1 -20 -13 22 -26 30 -61 13 -61 -8 0 -17 9 -20 20 -3 10 -17 22 -32 26 -22 6
-33 1 -57 -25 -16 -17 -33 -31 -39 -31 -5 0 -14 -11 -21 -25 -16 -36 -28 -21
-28 35 0 37 6 55 25 79 47 55 133 65 180 21 l21 -20 29 30 c16 16 31 28 34 25
2 -3 -8 -18 -24 -35z m831 8 l29 -33 -32 29 c-31 28 -38 36 -30 36 2 0 16 -15
33 -32z m-711 -28 c3 -5 -1 -10 -9 -10 -9 0 -16 5 -16 10 0 6 4 10 9 10 6 0
13 -4 16 -10z m631 -17 c-10 -10 -19 5 -10 18 6 11 8 11 12 0 2 -7 1 -15 -2
-18z m230 -8 c4 -8 17 -15 30 -15 23 0 24 -3 24 -60 l0 -60 -80 0 -80 0 0 60
c0 52 2 60 19 60 10 0 24 7 31 15 7 8 21 15 32 15 10 0 21 -7 24 -15z m-1116
-20 c0 -2 -10 -9 -22 -15 -22 -11 -22 -10 -4 4 21 17 26 19 26 11z m248 -12
c-4 -21 -49 -25 -56 -4 -3 9 1 11 17 6 12 -4 21 -2 21 4 0 6 5 11 11 11 6 0 9
-8 7 -17z m95 -21 c-16 -10 -54 -102 -48 -113 4 -5 -2 -6 -12 -2 -14 5 -13 1
6 -20 27 -30 23 -70 -10 -87 -26 -14 -69 11 -69 40 0 11 -7 20 -16 20 -9 0
-12 -5 -8 -12 6 -10 4 -10 -7 -1 -22 21 19 67 63 71 31 3 37 8 56 50 11 26 23
56 27 66 4 15 8 17 18 7 9 -9 9 -14 0 -19z m442 -32 c29 -75 28 -77 -7 -15
-19 33 -32 64 -30 68 6 13 17 -3 37 -53z m135 50 c0 -5 -4 -10 -10 -10 -5 0
-10 5 -10 10 0 6 5 10 10 10 6 0 10 -4 10 -10z m-903 -34 c-4 -9 -11 -16 -17
-16 -17 0 -24 31 -9 41 18 11 34 -5 26 -25z m-16 -46 c18 0 33 7 41 20 13 20
38 28 38 12 0 -15 -41 -52 -64 -58 -44 -11 -108 38 -90 68 4 7 15 0 26 -15 14
-19 29 -27 49 -27z m459 40 c0 -5 -4 -10 -10 -10 -5 0 -10 5 -10 10 0 6 5 10
10 10 6 0 10 -4 10 -10z m200 -5 c0 -8 -7 -15 -15 -15 -8 0 -15 7 -15 15 0 8
7 15 15 15 8 0 15 -7 15 -15z m-92 -77 c12 -2 7 -8 -18 -20 -19 -10 -46 -29
-59 -43 -12 -14 -28 -22 -34 -18 -5 3 -8 2 -5 -3 3 -5 -4 -18 -15 -28 -20 -19
-20 -19 -14 20 7 46 54 94 92 94 22 0 25 4 27 43 l1 42 4 -42 c3 -29 9 -43 21
-45z m-152 31 c10 -17 -13 -36 -27 -22 -12 12 -4 33 11 33 5 0 12 -5 16 -11z
m289 -7 c0 -18 -20 -15 -23 4 -3 10 1 15 10 12 7 -3 13 -10 13 -16z m157 -59
c40 -36 1 -106 -46 -81 -29 15 -37 29 -30 53 6 21 31 45 48 45 5 0 18 -7 28
-17z m-274 -34 c23 -26 27 -37 24 -80 l-4 -50 -61 3 -62 3 -5 48 c-3 26 -3 47
0 47 3 0 14 14 23 30 23 38 50 38 85 -1z"/>
<path d="M1194 1975 c11 -8 25 -15 30 -15 6 0 2 7 -8 15 -11 8 -25 15 -30 15
-6 0 -2 -7 8 -15z"/>
<path d="M1149 1931 c-20 -16 -21 -21 -10 -35 17 -20 55 -21 75 0 21 20 21 21
-13 39 -27 13 -31 13 -52 -4z m46 -10 c3 -5 1 -13 -5 -16 -15 -9 -43 3 -35 15
8 13 32 13 40 1z"/>
<path d="M1490 1880 c0 -5 5 -10 10 -10 6 0 10 5 10 10 0 6 -4 10 -10 10 -5 0
-10 -4 -10 -10z"/>
<path d="M599 1783 c-13 -16 -12 -17 4 -4 9 7 17 15 17 17 0 8 -8 3 -21 -13z"/>
<path d="M622 1779 c-7 -10 -19 -19 -28 -19 -8 0 -13 -4 -10 -9 3 -5 14 -7 24
-4 21 5 45 40 34 47 -4 3 -13 -4 -20 -15z"/>
<path d="M652 1754 c-13 -23 26 -64 39 -43 12 19 11 25 -7 43 -19 20 -21 20
-32 0z"/>
<path d="M596 1714 c-19 -19 -20 -26 -4 -42 29 -29 72 -3 57 36 -10 26 -31 28
-53 6z m24 -30 c0 -8 -4 -12 -10 -9 -5 3 -10 10 -10 16 0 5 5 9 10 9 6 0 10
-7 10 -16z"/>
<path d="M1745 1770 c3 -5 -1 -10 -10 -10 -10 0 -13 -5 -9 -12 5 -8 2 -9 -10
-5 -9 4 -15 3 -12 -2 3 -5 -1 -12 -10 -15 -13 -5 -14 -9 -3 -22 15 -19 58 -15
72 7 12 18 2 69 -14 69 -6 0 -7 -4 -4 -10z"/>
<path d="M1377 1441 c24 -17 45 -31 48 -32 3 0 18 9 33 20 23 17 25 22 13 33
-8 7 -11 8 -8 2 9 -15 -19 -39 -27 -25 -4 6 -14 7 -23 4 -9 -4 -14 -2 -10 3 3
5 -2 10 -11 10 -9 1 -26 5 -37 9 -11 4 -1 -6 22 -24z"/>
<path d="M1546 1457 c-16 -11 -14 -17 20 -75 29 -48 42 -62 61 -62 34 0 29 26
-18 93 -22 31 -42 57 -43 57 -1 0 -10 -6 -20 -13z"/>
<path d="M1123 1420 c-86 -17 -167 -80 -209 -162 -25 -49 -30 -155 -10 -215
20 -62 73 -124 133 -160 36 -21 63 -27 123 -31 68 -4 84 -1 131 21 89 43 138
98 164 189 44 153 -51 311 -211 353 -64 16 -61 16 -121 5z m63 -91 c-2 -12 5
-19 23 -22 14 -3 34 -9 43 -12 16 -6 17 -2 12 39 -5 31 -3 46 5 46 6 0 11 -17
11 -40 0 -45 1 -46 35 -24 13 9 30 14 37 12 7 -3 -7 -15 -30 -28 -42 -23 -42
-24 -23 -44 31 -35 41 -62 41 -117 0 -59 -28 -106 -84 -140 -61 -37 -177 -17
-213 38 -9 13 -21 22 -27 19 -6 -2 -28 -11 -48 -20 -21 -9 -38 -12 -38 -7 0 5
20 17 43 27 42 18 44 20 36 49 -8 28 -11 30 -48 27 -21 -2 -42 1 -45 7 -5 7 8
11 37 11 32 0 47 5 51 16 13 34 6 50 -29 63 -19 7 -35 17 -35 22 0 12 4 12 47
-6 33 -14 38 -14 55 1 26 24 23 32 -19 56 -20 12 -31 24 -24 26 6 2 23 -3 36
-12 34 -22 35 -21 35 24 0 22 5 40 11 40 7 0 10 -17 7 -45 -3 -37 0 -44 12
-39 8 3 27 8 43 11 25 5 27 10 28 52 1 44 1 44 10 16 5 -16 8 -37 5 -46z m234
-74 c0 -2 -18 -13 -40 -24 -45 -21 -56 -10 -12 13 27 15 52 20 52 11z m20
-115 c0 -13 -50 -13 -70 0 -11 7 -4 10 28 10 23 0 42 -4 42 -10z m-30 -102
c10 -6 6 -7 -15 -3 -16 4 -34 11 -40 17 -12 12 31 1 55 -14z m-331 -75 c14
-50 15 -94 1 -73 -5 8 -10 32 -10 53 0 20 -2 37 -4 37 -3 0 -21 -10 -41 -21
-20 -12 -38 -19 -41 -16 -6 5 64 55 78 56 4 1 12 -16 17 -36z m281 -8 c0 -11
-19 -4 -41 15 l-24 21 33 -16 c17 -8 32 -18 32 -20z m-91 -59 c-9 -8 -10 -5
-5 14 3 14 7 34 7 45 1 11 4 5 6 -14 3 -19 -1 -39 -8 -45z m-92 -8 c-2 -13 -4
-5 -4 17 -1 22 1 32 4 23 2 -10 2 -28 0 -40z"/>
<path d="M1116 1208 c-82 -72 6 -194 103 -143 57 29 67 91 22 136 -37 37 -88
39 -125 7z"/>
<path d="M1920 1480 c0 -5 5 -10 10 -10 6 0 10 5 10 10 0 6 -4 10 -10 10 -5 0
-10 -4 -10 -10z"/>
<path d="M431 1480 c-13 -18 -27 -28 -34 -24 -7 4 -4 -2 6 -13 9 -11 27 -19
40 -18 28 2 50 42 36 67 -13 25 -22 23 -48 -12z"/>
<path d="M619 1514 c-10 -12 -9 -18 3 -31 19 -18 38 -10 38 17 0 24 -25 33
-41 14z"/>
<path d="M1703 1523 c-18 -7 -16 -40 3 -47 21 -8 34 1 34 24 0 19 -17 30 -37
23z"/>
<path d="M329 1183 c-13 -17 -13 -17 6 -3 11 8 22 16 24 17 2 2 0 3 -6 3 -6 0
-17 -8 -24 -17z"/>
<path d="M414 1185 c36 -19 47 -19 22 0 -11 8 -27 15 -35 15 -9 0 -3 -7 13
-15z"/>
<path d="M346 1162 c-2 -4 13 -7 34 -7 21 0 36 3 34 7 -3 5 -18 8 -34 8 -16 0
-31 -3 -34 -8z"/>
<path d="M370 1130 c0 -5 7 -10 16 -10 8 0 12 5 9 10 -3 6 -10 10 -16 10 -5 0
-9 -4 -9 -10z"/>
<path d="M1938 1193 c7 -3 16 -2 19 1 4 3 -2 6 -13 5 -11 0 -14 -3 -6 -6z"/>
<path d="M1980 1196 c0 -2 7 -7 16 -10 8 -3 12 -2 9 4 -6 10 -25 14 -25 6z"/>
<path d="M1948 1169 c-33 -19 -15 -69 24 -69 15 0 38 27 38 44 0 7 -31 36 -38
36 -4 0 -15 -5 -24 -11z m32 -29 c0 -5 -4 -10 -10 -10 -5 0 -10 5 -10 10 0 6
5 10 10 10 6 0 10 -4 10 -10z"/>
<path d="M2020 1160 c0 -5 5 -10 11 -10 5 0 7 5 4 10 -3 6 -8 10 -11 10 -2 0
-4 -4 -4 -10z"/>
<path d="M1900 1120 c0 -5 5 -10 10 -10 6 0 10 5 10 10 0 6 -4 10 -10 10 -5 0
-10 -4 -10 -10z"/>
<path d="M2020 1119 c0 -5 5 -7 10 -4 6 3 10 8 10 11 0 2 -4 4 -10 4 -5 0 -10
-5 -10 -11z"/>
<path d="M1934 1085 c11 -8 22 -12 25 -9 6 6 -19 24 -34 24 -5 -1 -1 -7 9 -15z"/>
<path d="M1990 1090 c-8 -5 -12 -11 -9 -14 2 -3 11 -1 19 4 8 5 12 11 9 14 -2
3 -11 1 -19 -4z"/>
<path d="M411 836 c-8 -10 -8 -16 2 -24 17 -14 42 2 34 22 -8 20 -21 20 -36 2z"/>
<path d="M614 796 c-9 -24 4 -48 23 -44 12 2 18 12 18 28 0 29 -32 41 -41 16z"/>
<path d="M1694 795 c-8 -21 2 -45 19 -45 8 0 20 7 27 15 10 12 10 18 0 30 -7
8 -19 15 -27 15 -7 0 -16 -7 -19 -15z"/>
<path d="M1705 600 c-3 -5 1 -10 9 -10 9 0 16 5 16 10 0 6 -4 10 -9 10 -6 0
-13 -4 -16 -10z"/>
<path d="M1692 564 c-12 -8 -22 -24 -22 -34 0 -17 34 -50 52 -50 11 0 48 38
48 50 0 12 -37 50 -48 50 -4 0 -18 -7 -30 -16z m51 -16 c15 -23 1 -48 -28 -48
-14 0 -25 2 -25 4 0 2 -3 11 -6 19 -6 16 23 50 39 44 6 -2 15 -10 20 -19z"/>
<path d="M1704 539 c-10 -17 13 -36 27 -22 12 12 4 33 -11 33 -5 0 -12 -5 -16
-11z"/>
<path d="M872 398 c-16 -16 -15 -33 4 -48 22 -19 54 12 38 37 -14 22 -27 26
-42 11z"/>
<path d="M1440 395 c-26 -31 18 -71 47 -43 12 12 13 20 4 37 -14 25 -34 27
-51 6z"/>
<path d="M1160 316 c0 -21 21 -31 30 -15 5 7 6 17 4 21 -9 14 -34 9 -34 -6z"/>
</g>
</svg>
